PathFileType	4	(X/Y/Z)	C:\Github\BTS_project\Data\sports2d_results\test4 Exam_2026-03-06_143128_tvc2_Sports2D\test4 Exam_2026-03-06_143128_tvc2_Sports2D_px_person00.trc
DataRate	CameraRate	NumFrames	NumMarkers	Units	OrigDataRate	OrigDataStartFrame	OrigNumFrames
30.0	30.0	5	22	m	30.0	80	321
Frame#	Time	Hip			RHip			RKnee			RAnkle			RBigToe			RSmallToe			RHeel			LHip			LKnee			LAnkle			LBigToe			LSmallToe			LHeel			Neck			Head			Nose			RShoulder			RElbow			RWrist			LShoulder			LElbow			LWrist			
		X1	Y1	Z1	X2	Y2	Z2	X3	Y3	Z3	X4	Y4	Z4	X5	Y5	Z5	X6	Y6	Z6	X7	Y7	Z7	X8	Y8	Z8	X9	Y9	Z9	X10	Y10	Z10	X11	Y11	Z11	X12	Y12	Z12	X13	Y13	Z13	X14	Y14	Z14	X15	Y15	Z15	X16	Y16	Z16	X17	Y17	Z17	X18	Y18	Z18	X19	Y19	Z19	X20	Y20	Z20	X21	Y21	Z21	X22	Y22	Z22
80	2.675	333.1818880066736	710.5691495453232	0.0	301.91256605458545	715.0077757274424	0.0	308.19650718554226	836.6175873231888	0.0	327.1912431631853	933.9235958532956	0.0	331.7780316394639	966.312932807828	0.0	314.24387676232254	963.4166242076827	0.0	336.49158956166326	941.6656631992456	0.0	365.801504484616	710.5663949087625	0.0	374.64366401132304	819.173528328202	0.0	359.33588264401317	864.5114855544398	0.0	372.1460291421462	912.1384967383457	0.0	383.7904629921298	900.6349986954829	0.0	353.19220425776473	872.524093460217	0.0	317.33882010264216	535.1468402443379	0.0	308.69793827247184	457.35160352081294	0.0	309.9096050579038	497.73136206824637	0.0	263.89810275909736	572.431732646616	0.0	229.11773690990003	640.2140965940215	0.0	196.85999422004517	706.4658749567703	0.0	378.27384688488587	560.2949098758063	0.0	411.6270185877595	631.3649962951799	0.0	433.51740585167164	699.5845266035484	0.0
81	2.7084374999999996	333.2819187244731	710.3528930024011	0.0	301.4566834720325	714.967476061988	0.0	308.0434809256147	836.2819027481789	0.0	327.3435729807659	933.7996140092902	0.0	331.8597532084094	966.3052086864598	0.0	314.1212362040965	963.3857102461591	0.0	336.60526575391225	941.6965648726175	0.0	365.9150055902686	710.5279401925767	0.0	374.2910245169339	818.7422097519691	0.0	359.03211973096273	864.539423778214	0.0	372.7024289860225	912.0077160165627	0.0	383.7851161769962	900.2661459138437	0.0	353.0581370596668	871.7927137037241	0.0	317.47839406673637	535.208707309253	0.0	308.90702553575676	457.5315754062235	0.0	309.97608610004755	497.51544722433744	0.0	264.03002335919507	571.4937423382603	0.0	229.06008723316975	639.5249378403576	0.0	196.48762682539163	705.0364604466055	0.0	378.3048728230848	560.3483858498427	0.0	411.68570409395346	631.490778029005	0.0	432.68743784135603	699.2831502748732	0.0
82	2.7418749999999994	333.45322804669297	710.3816830079601	0.0	301.18890849055435	715.0526446160405	0.0	307.9339251364843	836.1651337622188	0.0	327.4621246711469	933.5378943587928	0.0	331.57361139179136	966.5746039983658	0.0	314.1919873027863	963.4884543360502	0.0	336.76647481217236	941.812287682714	0.0	366.0838101104713	710.5157845271282	0.0	374.01797428546433	818.0561079960147	0.0	358.8278481205849	864.9733738355799	0.0	373.10837208896095	912.3642909242777	0.0	383.5962744162333	899.9284673283032	0.0	352.95086262861463	871.3492685294297	0.0	317.78605569344694	535.7775523327686	0.0	308.8934798520494	457.93502338473206	0.0	310.09739662335767	497.59859012068523	0.0	264.3247823741072	570.7918398604535	0.0	228.91420850372637	638.8388899061493	0.0	195.83760005908596	703.7927687152517	0.0	378.5716212623261	560.4618613550053	0.0	411.88955575703073	631.818330560278	0.0	431.86113686645405	698.86862611796	0.0
83	2.7753124999999996	333.4722065782714	710.4177010569413	0.0	301.1581218187464	715.0893708453451	0.0	307.78560385534746	836.0897827015659	0.0	327.6195544039311	933.0782859503461	0.0	331.05578899617586	967.0756871918852	0.0	314.29854806514015	963.6570282473608	0.0	337.20839238218025	941.7514741552468	0.0	366.12431933602625	710.4519217437861	0.0	373.5446079503009	818.0078557951442	0.0	358.8077300195566	865.0147934203166	0.0	373.09754645966314	912.4699092018517	0.0	383.5419975473861	899.0603512393286	0.0	352.8277652430759	870.7996557411078	0.0	317.9993125543959	536.7850028585566	0.0	308.9651492979413	458.17994801566437	0.0	310.1726047404004	498.0878118669289	0.0	264.6075202772679	570.582437516522	0.0	228.66044541195603	638.2476003366946	0.0	194.95116241913303	702.7131703460773	0.0	379.1162636080322	560.5194185133766	0.0	411.9352356327457	632.21916476051	0.0	431.1694585540339	698.5752355479774	0.0
84	2.8087499999999994	333.24109451265883	710.2499019972004	0.0	300.97285408082416	714.9102318252383	0.0	307.6210520252505	835.9270282594806	0.0	327.7862332034803	932.5122935893814	0.0	330.8367855281481	967.5224326927962	0.0	314.2124100054407	963.7301445928963	0.0	337.8672122016085	941.2464356049784	0.0	365.9483927588663	710.2357247103951	0.0	372.76101048191174	818.6957711340709	0.0	358.89204992936	864.7985168989379	0.0	372.9003521495864	912.3607619425234	0.0	383.410200089795	898.2257371420793	0.0	352.74074637884513	870.0709028871547	0.0	318.1132833343672	537.552221360282	0.0	309.10844791951394	458.0910215965232	0.0	310.22192115361287	498.8620430328795	0.0	264.9343382798774	570.383684971525	0.0	228.43683370171627	637.9071625314863	0.0	193.86100096454496	702.1995128446018	0.0	379.59796518508386	560.45233414503	0.0	411.86185164805755	632.5882029568986	0.0	430.70027757779866	698.8880737174478	0.0
